<svg width="15" height="14" viewBox="0 0 15 14" fill="none" xmlns="http://www.w3.org/2000/svg">
<g clip-path="url(#clip0_703_1918)">
<path d="M11.1926 1.16667H10.6088V0.583333C10.6088 0.428624 10.5472 0.280251 10.4377 0.170854C10.3283 0.0614582 10.1797 0 10.0249 0C9.87005 0 9.72155 0.0614582 9.61205 0.170854C9.50256 0.280251 9.44105 0.428624 9.44105 0.583333V1.16667H4.77021V0.583333C4.77021 0.428624 4.70869 0.280251 4.5992 0.170854C4.4897 0.0614582 4.3412 0 4.18635 0C4.0315 0 3.883 0.0614582 3.7735 0.170854C3.66401 0.280251 3.6025 0.428624 3.6025 0.583333V1.16667H3.01864C2.24469 1.16759 1.50269 1.47518 0.955425 2.02196C0.408156 2.56874 0.100292 3.31007 0.0993652 4.08333L0.0993652 11.0833C0.100292 11.8566 0.408156 12.5979 0.955425 13.1447C1.50269 13.6915 2.24469 13.9991 3.01864 14H11.1926C11.9666 13.9991 12.7086 13.6915 13.2558 13.1447C13.8031 12.5979 14.111 11.8566 14.1119 11.0833V4.08333C14.111 3.31007 13.8031 2.56874 13.2558 2.02196C12.7086 1.47518 11.9666 1.16759 11.1926 1.16667ZM1.26708 4.08333C1.26708 3.6192 1.45161 3.17409 1.7801 2.8459C2.10858 2.51771 2.5541 2.33333 3.01864 2.33333H11.1926C11.6572 2.33333 12.1027 2.51771 12.4312 2.8459C12.7596 3.17409 12.9442 3.6192 12.9442 4.08333V4.66667H1.26708V4.08333ZM11.1926 12.8333H3.01864C2.5541 12.8333 2.10858 12.649 1.7801 12.3208C1.45161 11.9926 1.26708 11.5475 1.26708 11.0833V5.83333H12.9442V11.0833C12.9442 11.5475 12.7596 11.9926 12.4312 12.3208C12.1027 12.649 11.6572 12.8333 11.1926 12.8333Z" fill="#6C6C6C"/>
<path d="M7.10552 9.625C7.5892 9.625 7.9813 9.23325 7.9813 8.75C7.9813 8.26675 7.5892 7.875 7.10552 7.875C6.62184 7.875 6.22974 8.26675 6.22974 8.75C6.22974 9.23325 6.62184 9.625 7.10552 9.625Z" fill="#6C6C6C"/>
<path d="M4.18633 9.625C4.67001 9.625 5.06211 9.23325 5.06211 8.75C5.06211 8.26675 4.67001 7.875 4.18633 7.875C3.70265 7.875 3.31055 8.26675 3.31055 8.75C3.31055 9.23325 3.70265 9.625 4.18633 9.625Z" fill="#6C6C6C"/>
<path d="M10.025 9.625C10.5086 9.625 10.9007 9.23325 10.9007 8.75C10.9007 8.26675 10.5086 7.875 10.025 7.875C9.54127 7.875 9.14917 8.26675 9.14917 8.75C9.14917 9.23325 9.54127 9.625 10.025 9.625Z" fill="#6C6C6C"/>
</g>
<defs>
<clipPath id="clip0_703_1918">
<rect width="14.0125" height="14" fill="white" transform="translate(0.0993652)"/>
</clipPath>
</defs>
</svg>
