<svg width="15" height="14" viewBox="0 0 15 14" fill="none" xmlns="http://www.w3.org/2000/svg">
<path d="M7.10563 4.08333C5.49594 4.08333 4.18635 5.39175 4.18635 7C4.18635 8.60825 5.49594 9.91667 7.10563 9.91667C8.71531 9.91667 10.0249 8.60825 10.0249 7C10.0249 5.39175 8.71531 4.08333 7.10563 4.08333ZM7.10563 8.75C6.13993 8.75 5.35406 7.96483 5.35406 7C5.35406 6.03517 6.13993 5.25 7.10563 5.25C8.07132 5.25 8.85719 6.03517 8.85719 7C8.85719 7.96483 8.07132 8.75 7.10563 8.75ZM13.528 6.41667H12.915C12.64 3.66508 10.4435 1.47 7.68948 1.19583V0.583333C7.68948 0.26075 7.42791 0 7.10563 0C6.78334 0 6.52177 0.26075 6.52177 0.583333V1.19583C3.76773 1.47 1.57068 3.66508 1.29627 6.41667H0.68322C0.360932 6.41667 0.0993652 6.67742 0.0993652 7C0.0993652 7.32258 0.360932 7.58333 0.68322 7.58333H1.29627C1.57126 10.3349 3.76773 12.53 6.52177 12.8042V13.4167C6.52177 13.7392 6.78334 14 7.10563 14C7.42791 14 7.68948 13.7392 7.68948 13.4167V12.8042C10.4435 12.5294 12.6406 10.3349 12.915 7.58333H13.528C13.8503 7.58333 14.1119 7.32258 14.1119 7C14.1119 6.67742 13.8503 6.41667 13.528 6.41667ZM7.10563 11.6667C4.53024 11.6667 2.43479 9.57308 2.43479 7C2.43479 4.42692 4.53024 2.33333 7.10563 2.33333C9.68101 2.33333 11.7765 4.42692 11.7765 7C11.7765 9.57308 9.68101 11.6667 7.10563 11.6667Z" fill="#6C6C6C"/>
</svg>
