<svg width="17" height="22" viewBox="0 0 17 22" fill="none" xmlns="http://www.w3.org/2000/svg">
<path d="M16.5 21.9999H13.75V17.4166C13.75 16.9303 13.5568 16.464 13.213 16.1202C12.8692 15.7764 12.4029 15.5832 11.9166 15.5832H4.58332C4.09709 15.5832 3.63078 15.7764 3.28696 16.1202C2.94315 16.464 2.74999 16.9303 2.74999 17.4166V21.9999H0V17.4166C0.00145553 16.2014 0.484807 15.0365 1.34403 14.1773C2.20326 13.3181 3.3682 12.8347 4.58332 12.8333H11.9166C13.1318 12.8347 14.2967 13.3181 15.1559 14.1773C16.0152 15.0365 16.4985 16.2014 16.5 17.4166V21.9999Z" fill="white"/>
<path d="M8.24993 11C7.16213 11 6.09877 10.6774 5.1943 10.0731C4.28983 9.46871 3.58488 8.60973 3.1686 7.60474C2.75232 6.59975 2.6434 5.49389 2.85562 4.42699C3.06784 3.3601 3.59166 2.3801 4.36085 1.61091C5.13004 0.841724 6.11004 0.317901 7.17693 0.105683C8.24383 -0.106535 9.34969 0.00238307 10.3547 0.418664C11.3597 0.834945 12.2187 1.53989 12.823 2.44436C13.4273 3.34883 13.7499 4.41219 13.7499 5.49999C13.7485 6.95823 13.1685 8.35633 12.1374 9.38746C11.1063 10.4186 9.70817 10.9985 8.24993 11ZM8.24993 2.75C7.70603 2.75 7.17435 2.91128 6.72211 3.21345C6.26988 3.51563 5.91741 3.94512 5.70927 4.44761C5.50112 4.95011 5.44667 5.50304 5.55277 6.03649C5.65888 6.56993 5.9208 7.05993 6.30539 7.44453C6.68998 7.82912 7.17998 8.09103 7.71343 8.19714C8.24688 8.30325 8.79981 8.24879 9.3023 8.04065C9.8048 7.83251 10.2343 7.48004 10.5365 7.0278C10.8386 6.57557 10.9999 6.04389 10.9999 5.49999C10.9999 4.77065 10.7102 4.07117 10.1945 3.55545C9.67874 3.03973 8.97927 2.75 8.24993 2.75Z" fill="white"/>
</svg>
