<svg viewBox="0 0 41 41" fill="none" xmlns="http://www.w3.org/2000/svg">
<path d="M29.6517 27.9775L25.9743 24.2985C28.7259 20.6214 27.9756 15.4099 24.2985 12.6582C20.6214 9.90663 15.4099 10.6569 12.6582 14.334C9.90663 18.0111 10.6569 23.2227 14.334 25.9743C17.2878 28.1846 21.3447 28.1846 24.2985 25.9743L27.9775 29.6533C28.4398 30.1156 29.1894 30.1156 29.6517 29.6533C30.114 29.1909 30.114 28.4414 29.6517 27.9791L29.6517 27.9775ZM19.3469 25.2642C16.0789 25.2642 13.4296 22.615 13.4296 19.3469C13.4296 16.0789 16.0789 13.4296 19.3469 13.4296C22.615 13.4296 25.2642 16.0789 25.2642 19.3469C25.2607 22.6135 22.6135 25.2607 19.3469 25.2642Z" fill="#4B803B"/>
<circle cx="20.5" cy="20.5" r="20" stroke="#B7B7B7"/>
</svg>
