<svg width="19" height="19" viewBox="0 0 19 19" fill="none" xmlns="http://www.w3.org/2000/svg">
<path d="M18.6517 16.9775L14.9743 13.2985C17.7259 9.6214 16.9756 4.40985 13.2985 1.65824C9.6214 -1.09337 4.40985 -0.343099 1.65824 3.33402C-1.09337 7.01113 -0.343099 12.2227 3.33402 14.9743C6.28778 17.1846 10.3447 17.1846 13.2985 14.9743L16.9775 18.6533C17.4398 19.1156 18.1894 19.1156 18.6517 18.6533C19.114 18.1909 19.114 17.4414 18.6517 16.9791L18.6517 16.9775ZM8.34692 14.2642C5.07888 14.2642 2.42963 11.615 2.42963 8.34692C2.42963 5.07888 5.07888 2.42963 8.34692 2.42963C11.615 2.42963 14.2642 5.07888 14.2642 8.34692C14.2607 11.6135 11.6135 14.2607 8.34692 14.2642Z" fill="#4B803B"/>
</svg>
