<svg id="Layer_1" data-name="Layer 1" xmlns="http://www.w3.org/2000/svg" viewBox="0 0 120.65 120.65"><defs><style>.cls-1{fill:none;}.cls-2{fill:#fff;}</style></defs><rect class="cls-1" x="-169.22" y="327.98" width="1" height="7.09" transform="translate(-11.2 -337) rotate(-45)"/><rect class="cls-1" x="-259.47" y="331.02" width="7.09" height="1" transform="translate(-36.74 -398.67) rotate(-45)"/><path class="cls-2" d="M-155.44,323.27l-1.92,1.91.74.74a2.7,2.7,0,0,0,3.83,0,2.7,2.7,0,0,0,0-3.83l-6.49-6.49a2.7,2.7,0,0,0-3.83,0,2.7,2.7,0,0,0,0,3.83l.74.74,1.91-1.92Z" transform="translate(272.64 -314.8)"/><path class="cls-2" d="M-195.29,348l-10.48,10.48,10.13,10.13,10.48-10.48C-186.68,355.41-192.6,349.49-195.29,348Z" transform="translate(272.64 -314.8)"/><path class="cls-2" d="M-258.24,421.05a20.38,20.38,0,0,0,5.88,4.25l33.49-33.49L-229,381.68l-33.49,33.48A20.52,20.52,0,0,0-258.24,421.05Z" transform="translate(272.64 -314.8)"/><polygon class="cls-2" points="112.1 13.56 115.28 10.38 117.2 8.46 112.19 3.45 110.27 5.37 107.08 8.55 112.1 13.56"/><path class="cls-2" d="M-252.13,426.48l-.31-.13a20.92,20.92,0,0,1-6.51-4.59,20.87,20.87,0,0,1-4.59-6.51l-.13-.31.23-.24L-229.71,381l-5.84-5.84-37.09,37.1s-.23,7.3,7.85,15.37,15.37,7.85,15.37,7.85l37.1-37.1-5.84-5.84Z" transform="translate(272.64 -314.8)"/><path class="cls-2" d="M-195.49,346.76l.32.15c2.87,1.36,9.71,8.2,11.07,11.07l.15.32-.25.25-10.73,10.74,5.84,5.84,15.77-15.77s-8.66-9.56-2.53-15.68l6.63-6.64-5-5-2,1.94,5,5-.71.7-5-5-4,4c-6.12,6.13-15.68-2.53-15.68-2.53l-15.77,15.77,5.84,5.84Z" transform="translate(272.64 -314.8)"/><path class="cls-2" d="M-161.25,329.08l-5-5-1.94,1.95,5,5-.71.71-5-5-4.6,4.6,5,5Zm-9.62-.42,5,5-.71.7-5-5Z" transform="translate(272.64 -314.8)"/><path class="cls-2" d="M-268,325.92l.74-.74-1.92-1.91,5-5,1.91,1.92.74-.74a2.7,2.7,0,0,0,0-3.83,2.7,2.7,0,0,0-3.83,0l-6.49,6.49a2.7,2.7,0,0,0,0,3.83A2.7,2.7,0,0,0-268,325.92Z" transform="translate(272.64 -314.8)"/><path class="cls-2" d="M-189.09,375.13l-5.84-5.84-.71-.71-10.13-10.13-.71-.71-5.84-5.84-15.77-15.77s-9.56,8.66-15.68,2.53l-4-4-5,5,4,4c6.12,6.12-2.54,15.68-2.54,15.68l15.77,15.77,5.84,5.84.71.71,10.13,10.13.71.7,5.84,5.84,37.1,37.1s7.3.22,15.37-7.85,7.86-15.37,7.86-15.37Zm28,40.12a20.87,20.87,0,0,1-4.59,6.51,20.92,20.92,0,0,1-6.51,4.59l-.31.13-.24-.23-33.73-33.74-5.84-5.84-.71-.7-10.13-10.13-.71-.71-5.84-5.84-11-11,.15-.32c1.37-2.87,8.2-9.71,11.08-11.07l.32-.15.24.24,10.74,10.74,5.84,5.84.71.71,10.13,10.13.71.71,5.84,5.84,34,34Z" transform="translate(272.64 -314.8)"/><polygon class="cls-2" points="3.45 8.46 5.37 10.38 8.55 13.57 13.56 8.55 14.27 9.26 9.26 14.27 11.21 16.22 16.22 11.21 10.38 5.37 8.46 3.45 3.45 8.46"/><path class="cls-2" d="M-202.19,375.13-212.32,365l-.71-.71-5.84-5.84L-229.34,348c-2.7,1.52-8.62,7.44-10.14,10.13L-229,368.58l5.84,5.84.71.71,10.13,10.13.71.71,5.84,5.84,33.49,33.49a20.55,20.55,0,0,0,5.89-4.25,20.67,20.67,0,0,0,4.24-5.89l-33.49-33.48-5.84-5.84Z" transform="translate(272.64 -314.8)"/><path class="cls-2" d="M-256.13,336.33l5-5,.71.71-5,5,1.95,1.95,5-5-7.26-7.25-5,5Zm2.36-7.67.71.71-5,5-.7-.7Z" transform="translate(272.64 -314.8)"/></svg>