<svg id="Layer_1" data-name="Layer 1" xmlns="http://www.w3.org/2000/svg" viewBox="0 0 521.79 409.74"><defs><style>.cls-1{fill:#fff;}.cls-1,.cls-2,.cls-3,.cls-4,.cls-5,.cls-6,.cls-7,.cls-8,.cls-9{stroke:#195c98;stroke-linecap:round;stroke-linejoin:round;}.cls-1,.cls-2{stroke-width:12.16px;}.cls-2,.cls-3,.cls-4,.cls-5,.cls-6,.cls-7,.cls-8,.cls-9{fill:none;}.cls-3{stroke-width:7.29px;}.cls-4{stroke-width:5.27px;}.cls-5{stroke-width:3.65px;}.cls-6{stroke-width:5.67px;}.cls-7{stroke-width:4.05px;}.cls-8{stroke-width:6.48px;}.cls-9{stroke-width:4.94px;}</style></defs><path class="cls-1" d="M-1223.51,316.62h-98A29.86,29.86,0,0,1-1351.32,285l7.15-64.65a57,57,0,0,0-22.46-51.89l-45.08-34.7a31.78,31.78,0,0,1-11.08-34.22l5.34-18a11.11,11.11,0,0,1,16-6.61l50,27.16L-1366.7-20.67A24,24,0,0,1-1348.48-47h0a24,24,0,0,1,29.61,21.91l6.25,103.67L-1321-59.87a19.85,19.85,0,0,1,14.86-20.41h0a21.17,21.17,0,0,1,26.44,20.12l2.52,141.64-.36-115.38a20.2,20.2,0,0,1,21.4-20.23l4.07.24a24.27,24.27,0,0,1,22.74,26.51l-10.52,111.86,12.52-82.2a23.2,23.2,0,0,1,25.54-19.56h0a23.2,23.2,0,0,1,20.42,25.91l-9.56,77.14s-5.15,102.55-6,133c-.43,15.23,4.19,39.69,8.91,60.34a30.65,30.65,0,0,1-29.86,37.49Z" transform="translate(1696.87 87.04)"/><path class="cls-1" d="M-1351.73,100.43c-1.29-.14-2.56-.32-3.83-.55L-1387,82.77a56.63,56.63,0,0,1-15.36-38.85A56.87,56.87,0,0,1-1365.3-9.39Z" transform="translate(1696.87 87.04)"/><path class="cls-2" d="M-1194.5,160.53c-.58,12.59-1.13,25-1.58,35.66l-150.77,48.33,2.68-24.22a56.89,56.89,0,0,0,.08-11.81Z" transform="translate(1696.87 87.04)"/><line class="cls-3" x1="337.85" y1="85.38" x2="373.75" y2="79.45"/><line class="cls-4" x1="336.8" y1="75.49" x2="373.75" y2="70.12"/><line class="cls-5" x1="335.36" y1="67.96" x2="372.31" y2="62.58"/><line class="cls-3" x1="345.15" y1="142.37" x2="376.61" y2="137.79"/><line class="cls-4" x1="346.28" y1="151.72" x2="377.74" y2="147.15"/><line class="cls-5" x1="348.15" y1="160.12" x2="379.62" y2="155.54"/><line class="cls-3" x1="296.6" y1="233.03" x2="326.25" y2="187.47"/><line class="cls-4" x1="305.18" y1="237.23" x2="334.83" y2="191.67"/><line class="cls-5" x1="313.79" y1="239.84" x2="343.44" y2="194.28"/><line class="cls-3" x1="381.81" y1="76.08" x2="418.13" y2="73.96"/><line class="cls-3" x1="383.07" y1="137.57" x2="414.84" y2="136.33"/><line class="cls-4" x1="383.21" y1="146.99" x2="414.98" y2="145.75"/><line class="cls-4" x1="381.8" y1="66.14" x2="419.11" y2="64.68"/><line class="cls-5" x1="381.16" y1="58.49" x2="418.47" y2="57.04"/><line class="cls-5" x1="384.19" y1="155.54" x2="415.97" y2="154.3"/><line class="cls-3" x1="423.47" y1="80.55" x2="459.82" y2="82.06"/><line class="cls-3" x1="424.27" y1="136.86" x2="456.01" y2="138.78"/><line class="cls-4" x1="423.47" y1="146.25" x2="455.21" y2="148.17"/><line class="cls-4" x1="424.45" y1="70.66" x2="461.72" y2="72.91"/><line class="cls-5" x1="424.58" y1="62.99" x2="461.85" y2="65.25"/><line class="cls-5" x1="423.6" y1="154.85" x2="455.34" y2="156.78"/><line class="cls-3" x1="468.76" y1="111.55" x2="504.84" y2="116.16"/><line class="cls-3" x1="466.22" y1="144.27" x2="501.46" y2="149.35"/><line class="cls-4" x1="464.62" y1="153.56" x2="499.86" y2="158.63"/><line class="cls-4" x1="470.58" y1="101.78" x2="507.52" y2="107.22"/><line class="cls-5" x1="471.36" y1="94.15" x2="508.3" y2="99.59"/><line class="cls-5" x1="464.01" y1="162.14" x2="499.26" y2="167.22"/><line class="cls-3" x1="346.95" y1="383.03" x2="508.3" y2="383.03"/><line class="cls-6" x1="346.95" y1="372.95" x2="508.3" y2="372.95"/><line class="cls-7" x1="346.95" y1="364.85" x2="508.3" y2="364.85"/><path class="cls-8" d="M-1387,82.77s-4.68-42.49,26.47-53.65" transform="translate(1696.87 87.04)"/><path class="cls-9" d="M-1377.62,87.2s-3.42-37.61,19.36-47.49" transform="translate(1696.87 87.04)"/><path class="cls-1" d="M-1648.45,316.62h98A29.87,29.87,0,0,0-1520.63,285l-7.16-64.65a57,57,0,0,1,22.46-51.89l45.08-34.7a31.76,31.76,0,0,0,11.08-34.22l-5.33-18a11.13,11.13,0,0,0-16-6.61l-50,27.16,15.17-122.74A24,24,0,0,0-1523.48-47h0a24,24,0,0,0-29.6,21.91l-6.26,103.67L-1551-59.87a19.83,19.83,0,0,0-14.86-20.41h0a21.15,21.15,0,0,0-26.43,20.12l-2.53,141.64.36-115.38a20.2,20.2,0,0,0-21.4-20.23l-4.07.24a24.27,24.27,0,0,0-22.74,26.51l10.52,111.86-12.52-82.2a23.19,23.19,0,0,0-25.54-19.56h0a23.21,23.21,0,0,0-20.42,25.91l9.56,77.14s5.15,102.55,6,133c.43,15.23-4.18,39.69-8.9,60.34a30.64,30.64,0,0,0,29.85,37.49Z" transform="translate(1696.87 87.04)"/><path class="cls-1" d="M-1520.23,100.43c1.29-.14,2.57-.32,3.83-.55l31.46-17.11a56.63,56.63,0,0,0,15.35-38.85,56.87,56.87,0,0,0-37.06-53.31Z" transform="translate(1696.87 87.04)"/><path class="cls-2" d="M-1677.45,160.53c.58,12.59,1.13,25,1.57,35.66l150.77,48.33-2.68-24.22a56.89,56.89,0,0,1-.08-11.81Z" transform="translate(1696.87 87.04)"/><line class="cls-3" x1="183.94" y1="85.38" x2="148.04" y2="79.45"/><line class="cls-4" x1="184.99" y1="75.49" x2="148.04" y2="70.12"/><line class="cls-5" x1="186.43" y1="67.96" x2="149.48" y2="62.58"/><line class="cls-3" x1="176.64" y1="142.37" x2="145.18" y2="137.79"/><line class="cls-4" x1="175.51" y1="151.72" x2="144.05" y2="147.15"/><line class="cls-5" x1="173.64" y1="160.12" x2="142.17" y2="155.54"/><line class="cls-3" x1="225.19" y1="233.03" x2="195.54" y2="187.47"/><line class="cls-4" x1="216.61" y1="237.23" x2="186.96" y2="191.67"/><line class="cls-5" x1="208" y1="239.84" x2="178.35" y2="194.28"/><line class="cls-3" x1="139.98" y1="76.08" x2="103.66" y2="73.96"/><line class="cls-3" x1="138.72" y1="137.57" x2="106.95" y2="136.33"/><line class="cls-4" x1="138.58" y1="146.99" x2="106.81" y2="145.75"/><line class="cls-4" x1="139.99" y1="66.14" x2="102.68" y2="64.68"/><line class="cls-5" x1="140.63" y1="58.49" x2="103.32" y2="57.04"/><line class="cls-5" x1="137.6" y1="155.54" x2="105.82" y2="154.3"/><line class="cls-3" x1="98.32" y1="80.55" x2="61.97" y2="82.06"/><line class="cls-3" x1="97.52" y1="136.86" x2="65.78" y2="138.78"/><line class="cls-4" x1="98.32" y1="146.25" x2="66.58" y2="148.17"/><line class="cls-4" x1="97.34" y1="70.66" x2="60.07" y2="72.91"/><line class="cls-5" x1="97.21" y1="62.99" x2="59.94" y2="65.25"/><line class="cls-5" x1="98.19" y1="154.85" x2="66.45" y2="156.78"/><line class="cls-3" x1="53.03" y1="111.55" x2="16.95" y2="116.16"/><line class="cls-3" x1="55.57" y1="144.27" x2="20.33" y2="149.35"/><line class="cls-4" x1="57.17" y1="153.56" x2="21.93" y2="158.63"/><line class="cls-4" x1="51.21" y1="101.78" x2="14.27" y2="107.22"/><line class="cls-5" x1="50.43" y1="94.15" x2="13.49" y2="99.59"/><line class="cls-5" x1="57.78" y1="162.14" x2="22.53" y2="167.22"/><line class="cls-3" x1="174.84" y1="383.03" x2="13.49" y2="383.03"/><line class="cls-6" x1="174.84" y1="372.95" x2="13.49" y2="372.95"/><line class="cls-7" x1="174.84" y1="364.85" x2="13.49" y2="364.85"/><path class="cls-8" d="M-1484.94,82.77s4.67-42.49-26.47-53.65" transform="translate(1696.87 87.04)"/><path class="cls-9" d="M-1494.34,87.2s3.43-37.61-19.36-47.49" transform="translate(1696.87 87.04)"/></svg>